<?xml version="1.0" encoding="UTF-8"?>
<svg width="38px" height="38px" viewBox="0 0 38 38" version="1.1" xmlns="http://www.w3.org/2000/svg" xmlns:xlink="http://www.w3.org/1999/xlink">
    <!-- Generator: Sketch 60 (88103) - https://sketch.com -->
    <title>Bedrooms Icon Light</title>
    <desc>Created with Sketch.</desc>
    <g id="Page-1" stroke="none" stroke-width="1" fill="none" fill-rule="evenodd">
        <g id="Rentals" transform="translate(-206.000000, -343.000000)">
            <g id="Bedrooms-Icon-Light" transform="translate(206.000000, 343.000000)">
                <rect id="Rectangle-Copy-3" fill="#F6F5F4" x="0" y="0" width="38" height="38" rx="4"></rect>
                <rect id="Rectangle" stroke="#3D3B3B" stroke-width="0.3" fill="#3D3B3B" x="6.53612551" y="26.3364943" width="25.7" height="3.7"></rect>
                <rect id="Rectangle" stroke="#3D3B3B" stroke-width="0.1" fill="#3D3B3B" x="8.43612551" y="7.23649432" width="20.9" height="4.9"></rect>
                <path d="" id="Path-3" stroke="#3D3B3B"></path>
                <polygon id="Path-5" stroke="#3D3B3B" stroke-width="0.9" fill="#F6F5F4" points="8.38612551 16.0218536 9.15026575 12.1864943 28.7375026 12.1864943 29.3861255 16.0218536 18.7214386 16.1864943"></polygon>
                <path d="M7.20911053,16.1864943 C12.324616,16.2895526 16.1563042,16.3410817 18.7041752,16.3410817 C21.2520462,16.3410817 25.0351081,16.2895526 30.053361,16.1864943 C30.7816889,16.1864943 31.5066627,17.1043318 32.2282822,18.9400069 C33.6086575,22.4514423 34.2004297,27.1553161 34.3469956,28.1183821 C34.5563207,29.4938307 33.9258084,29.5408663 32.4554587,28.2594889 C31.3138689,27.0604687 26.7301077,26.4609586 18.7041752,26.4609586 C10.6782427,26.4609586 6.30808909,26.9433181 5.59371424,27.9080371 C3.93694196,29.4195867 3.21271239,29.4195867 3.42102554,27.9080371 C3.5533622,26.9477838 4.12768027,21.8237483 5.268192,18.9400069 C5.99419638,17.1043318 6.64116922,16.1864943 7.20911053,16.1864943 Z" id="Path-4" stroke="#3D3B3B" stroke-width="0.5" fill="#F6F5F4"></path>
                <rect id="Rectangle" stroke="#3D3B3B" stroke-width="0.5" fill="#F6F5F4" x="11.6361255" y="10.4364943" width="6.5" height="3.5" rx="0.3"></rect>
                <rect id="Rectangle-Copy-4" stroke="#3D3B3B" stroke-width="0.5" fill="#F6F5F4" x="19.6361255" y="10.4364943" width="6.5" height="3.5" rx="0.3"></rect>
            </g>
        </g>
    </g>
</svg>