<?xml version="1.0" encoding="UTF-8"?> <svg xmlns="http://www.w3.org/2000/svg" xmlns:xlink="http://www.w3.org/1999/xlink" width="38px" height="38px" viewBox="0 0 38 38" version="1.1"><!-- Generator: Sketch 62 (91390) - https://sketch.com --><title>compass-light</title><desc>Created with Sketch.</desc><g id="Page-1" stroke="none" stroke-width="1" fill="none" fill-rule="evenodd"><g id="Rentals" transform="translate(-70.000000, -300.000000)"><g id="compass-light" transform="translate(70.000000, 300.000000)"><rect id="Background" fill="#F6F5F4" x="0" y="0" width="38" height="38" rx="4"></rect><g id="compass" transform="translate(1.000000, 2.000000)"><circle id="Oval" stroke="#3D3B3B" cx="18" cy="17" r="13.5"></circle><path d="M18,22.4789946 L10.2515315,24.7484685 L12.5210054,17 L10.2515315,9.2515315 L18,11.5210054 L25.7484685,9.2515315 L23.4789946,17 L25.7484685,24.7484685 L18,22.4789946 Z" id="Star" stroke="#3D3B3B" fill="#3D3B3B" transform="translate(18.000000, 17.000000) rotate(-360.000000) translate(-18.000000, -17.000000) "></path><path d="M17.8967632,22.8249339 L9.70620698,25.2238922 L12.1051654,17.033336 L9.70620698,8.84277979 L17.8967632,11.2417382 L26.0873194,8.84277979 L23.688361,17.033336 L26.0873194,25.2238922 L17.8967632,22.8249339 Z" id="Star-Copy" stroke="#F6F5F4" stroke-width="0.4" fill="#3D3B3B" transform="translate(17.896763, 17.033336) rotate(-225.000000) translate(-17.896763, -17.033336) "></path><circle id="Oval" fill="#F6F5F4" cx="18" cy="17" r="2"></circle></g></g></g></g></svg> 