<?xml version="1.0" encoding="UTF-8"?> <svg xmlns="http://www.w3.org/2000/svg" xmlns:xlink="http://www.w3.org/1999/xlink" width="38px" height="38px" viewBox="0 0 38 38"><!-- Generator: Sketch 62 (91390) - https://sketch.com --><title>ppsbh-shower-icon-light</title><desc>Created with Sketch.</desc><g id="Page-1" stroke="none" stroke-width="1" fill="none" fill-rule="evenodd"><g id="Rentals" transform="translate(-115.000000, -300.000000)"><g id="ppsbh-shower-icon-light" transform="translate(115.000000, 300.000000)"><rect id="Background" fill="#F6F5F4" x="0" y="0" width="38" height="38" rx="4"></rect><g id="shower-copy" transform="translate(11.000000, 6.000000)" stroke="#3D3B3B"><path d="M0.0148063183,27 L0.0148063183,5.56985434 C-0.142241066,3.64240582 0.950037035,2.04305631 3.29164062,0.771805831 C5.63324421,-0.499444653 8.06999348,-0.0965036549 10.6018884,1.98062882" id="Line" stroke-width="0.8"></path><path d="M14.6018884,2.98062882 C14.6018884,2.31396216 13.2685551,1.98062882 10.6018884,1.98062882 C7.93522175,1.98062882 6.60188842,2.31396216 6.60188842,2.98062882" id="Line-2" stroke-width="0.8" fill="#3D3B3B" stroke-linecap="square"></path><path d="M6.60188842,4.4712383 L6.49195134,5.68054614 L4.60188842,26.4712383" id="Line-4" stroke-width="0.7" stroke-linecap="round" stroke-dasharray="2"></path><line x1="8.5" y1="4.5" x2="7.60188842" y2="26.4712383" id="Line-4-Copy" stroke-width="0.7" stroke-linecap="round" stroke-dasharray="2"></line><line x1="12.5" y1="4.5" x2="13.6018884" y2="27.4712383" id="Line-4-Copy-2" stroke-width="0.7" stroke-linecap="round" stroke-dasharray="2"></line><line x1="10.5" y1="4.5" x2="10.6018884" y2="26.4712383" id="Line-4-Copy-3" stroke-width="0.7" stroke-linecap="round" stroke-dasharray="2"></line><line x1="14.5" y1="4.5" x2="16.6018884" y2="26.4712383" id="Line-5" stroke-width="0.7" stroke-linecap="round" stroke-dasharray="2"></line><line x1="6.60188842" y1="3" x2="14.6018884" y2="3" id="Line-3" stroke-width="0.8" stroke-linecap="square"></line></g></g></g></g></svg> 